<mxfile host="Electron" agent="Mozilla/5.0 (Windows NT 10.0; Win64; x64) AppleWebKit/537.36 (KHTML, like Gecko) draw.io/28.0.6 Chrome/138.0.7204.100 Electron/37.2.3 Safari/537.36" version="28.0.6">
  <diagram name="Page-1" id="j1p_RL88eoYgYxo-cIC2">
    <mxGraphModel dx="1892" dy="1822" grid="1" gridSize="10" guides="1" tooltips="1" connect="1" arrows="1" fold="1" page="1" pageScale="1" pageWidth="850" pageHeight="1100" math="0" shadow="0">
      <root>
        <mxCell id="0" />
        <mxCell id="1" parent="0" />
        <mxCell id="ALYkaGebAR-C7LoZJRpd-4" style="edgeStyle=orthogonalEdgeStyle;rounded=0;orthogonalLoop=1;jettySize=auto;html=1;entryX=0.5;entryY=0;entryDx=0;entryDy=0;" edge="1" parent="1" source="ALYkaGebAR-C7LoZJRpd-1" target="ALYkaGebAR-C7LoZJRpd-3">
          <mxGeometry relative="1" as="geometry" />
        </mxCell>
        <mxCell id="ALYkaGebAR-C7LoZJRpd-1" value="start" style="strokeWidth=2;html=1;shape=mxgraph.flowchart.terminator;whiteSpace=wrap;" vertex="1" parent="1">
          <mxGeometry x="60" width="100" height="60" as="geometry" />
        </mxCell>
        <mxCell id="ALYkaGebAR-C7LoZJRpd-7" style="edgeStyle=orthogonalEdgeStyle;rounded=0;orthogonalLoop=1;jettySize=auto;html=1;entryX=0.5;entryY=0;entryDx=0;entryDy=0;" edge="1" parent="1" source="ALYkaGebAR-C7LoZJRpd-3" target="ALYkaGebAR-C7LoZJRpd-5">
          <mxGeometry relative="1" as="geometry" />
        </mxCell>
        <mxCell id="ALYkaGebAR-C7LoZJRpd-3" value="Declarations&lt;div&gt;&amp;nbsp; &amp;nbsp;string addIn&lt;/div&gt;&lt;div&gt;&amp;nbsp; &amp;nbsp;num price&lt;/div&gt;&lt;div&gt;&amp;nbsp; &amp;nbsp;num SIZE = 5&lt;/div&gt;&lt;div&gt;&amp;nbsp; &amp;nbsp;string VALID_ADDINS[SIZE] = &quot;Whipped cream&quot;, &quot;Cinnamon&quot;, &quot;Chocolate sauce&quot;, &quot;Amaretto&quot;, &quot;Irish whiskey&quot;&lt;/div&gt;&lt;div&gt;&amp;nbsp; &amp;nbsp;num VALID_PRICES[SIZE] = 0.89, 0.25, 0.59, 1.50, 1.75&lt;/div&gt;&lt;div&gt;&amp;nbsp; &amp;nbsp;num subscript&lt;/div&gt;&lt;div&gt;&amp;nbsp; &amp;nbsp;string foundIt&lt;/div&gt;&lt;div&gt;&amp;nbsp; &amp;nbsp;string MSG_YES = &quot;The price for this item is &quot; + VALID_PRICE[i] + &quot;.&quot;&lt;/div&gt;&lt;div&gt;&amp;nbsp; &amp;nbsp;string MSG_NO = &quot;Sorry, we do not carry that&quot;&lt;/div&gt;&lt;div&gt;&amp;nbsp; &amp;nbsp;num basePrice = 2.00&lt;/div&gt;&lt;div&gt;&amp;nbsp; &amp;nbsp;string QUIT&lt;/div&gt;" style="rounded=0;whiteSpace=wrap;html=1;align=left;" vertex="1" parent="1">
          <mxGeometry x="-200" y="100" width="620" height="200" as="geometry" />
        </mxCell>
        <mxCell id="ALYkaGebAR-C7LoZJRpd-5" value="" style="rounded=0;whiteSpace=wrap;html=1;" vertex="1" parent="1">
          <mxGeometry x="50" y="330" width="120" height="10" as="geometry" />
        </mxCell>
        <mxCell id="ALYkaGebAR-C7LoZJRpd-16" style="edgeStyle=orthogonalEdgeStyle;rounded=0;orthogonalLoop=1;jettySize=auto;html=1;" edge="1" parent="1" source="ALYkaGebAR-C7LoZJRpd-6" target="ALYkaGebAR-C7LoZJRpd-15">
          <mxGeometry relative="1" as="geometry" />
        </mxCell>
        <mxCell id="ALYkaGebAR-C7LoZJRpd-6" value="orderCoffee()" style="rounded=0;whiteSpace=wrap;html=1;" vertex="1" parent="1">
          <mxGeometry x="50" y="340" width="120" height="60" as="geometry" />
        </mxCell>
        <mxCell id="ALYkaGebAR-C7LoZJRpd-12" style="edgeStyle=orthogonalEdgeStyle;rounded=0;orthogonalLoop=1;jettySize=auto;html=1;entryX=0.5;entryY=0;entryDx=0;entryDy=0;" edge="1" parent="1" source="ALYkaGebAR-C7LoZJRpd-8" target="ALYkaGebAR-C7LoZJRpd-9">
          <mxGeometry relative="1" as="geometry" />
        </mxCell>
        <mxCell id="ALYkaGebAR-C7LoZJRpd-8" value="orderCoffee()" style="strokeWidth=2;html=1;shape=mxgraph.flowchart.terminator;whiteSpace=wrap;" vertex="1" parent="1">
          <mxGeometry x="590" y="40" width="100" height="60" as="geometry" />
        </mxCell>
        <mxCell id="ALYkaGebAR-C7LoZJRpd-13" style="edgeStyle=orthogonalEdgeStyle;rounded=0;orthogonalLoop=1;jettySize=auto;html=1;entryX=0.5;entryY=0;entryDx=0;entryDy=0;" edge="1" parent="1" source="ALYkaGebAR-C7LoZJRpd-9" target="ALYkaGebAR-C7LoZJRpd-10">
          <mxGeometry relative="1" as="geometry" />
        </mxCell>
        <mxCell id="ALYkaGebAR-C7LoZJRpd-9" value="output &quot;What would you like to add in your coffee today?&quot; or QUIT" style="shape=parallelogram;perimeter=parallelogramPerimeter;whiteSpace=wrap;html=1;fixedSize=1;" vertex="1" parent="1">
          <mxGeometry x="510" y="140" width="260" height="60" as="geometry" />
        </mxCell>
        <mxCell id="ALYkaGebAR-C7LoZJRpd-10" value="input addIn" style="shape=parallelogram;perimeter=parallelogramPerimeter;whiteSpace=wrap;html=1;fixedSize=1;" vertex="1" parent="1">
          <mxGeometry x="580" y="240" width="120" height="60" as="geometry" />
        </mxCell>
        <mxCell id="ALYkaGebAR-C7LoZJRpd-11" value="return" style="strokeWidth=2;html=1;shape=mxgraph.flowchart.terminator;whiteSpace=wrap;" vertex="1" parent="1">
          <mxGeometry x="590" y="340" width="100" height="60" as="geometry" />
        </mxCell>
        <mxCell id="ALYkaGebAR-C7LoZJRpd-14" style="edgeStyle=orthogonalEdgeStyle;rounded=0;orthogonalLoop=1;jettySize=auto;html=1;entryX=0.5;entryY=0;entryDx=0;entryDy=0;entryPerimeter=0;" edge="1" parent="1" source="ALYkaGebAR-C7LoZJRpd-10" target="ALYkaGebAR-C7LoZJRpd-11">
          <mxGeometry relative="1" as="geometry" />
        </mxCell>
        <mxCell id="ALYkaGebAR-C7LoZJRpd-20" style="edgeStyle=orthogonalEdgeStyle;rounded=0;orthogonalLoop=1;jettySize=auto;html=1;entryX=0;entryY=0.5;entryDx=0;entryDy=0;" edge="1" parent="1" source="ALYkaGebAR-C7LoZJRpd-15" target="ALYkaGebAR-C7LoZJRpd-17">
          <mxGeometry relative="1" as="geometry" />
        </mxCell>
        <mxCell id="ALYkaGebAR-C7LoZJRpd-25" style="edgeStyle=orthogonalEdgeStyle;rounded=0;orthogonalLoop=1;jettySize=auto;html=1;entryX=0.5;entryY=0;entryDx=0;entryDy=0;" edge="1" parent="1" source="ALYkaGebAR-C7LoZJRpd-15" target="ALYkaGebAR-C7LoZJRpd-23">
          <mxGeometry relative="1" as="geometry" />
        </mxCell>
        <mxCell id="ALYkaGebAR-C7LoZJRpd-15" value="addIn &amp;lt;&amp;gt;&lt;div&gt;QUIT?&lt;/div&gt;" style="rhombus;whiteSpace=wrap;html=1;" vertex="1" parent="1">
          <mxGeometry x="70" y="440" width="80" height="80" as="geometry" />
        </mxCell>
        <mxCell id="ALYkaGebAR-C7LoZJRpd-17" value="findAddIn()" style="rounded=0;whiteSpace=wrap;html=1;" vertex="1" parent="1">
          <mxGeometry x="200" y="450" width="120" height="60" as="geometry" />
        </mxCell>
        <mxCell id="ALYkaGebAR-C7LoZJRpd-18" value="" style="rounded=0;whiteSpace=wrap;html=1;" vertex="1" parent="1">
          <mxGeometry x="200" y="440" width="120" height="10" as="geometry" />
        </mxCell>
        <mxCell id="ALYkaGebAR-C7LoZJRpd-21" value="" style="edgeStyle=elbowEdgeStyle;elbow=horizontal;endArrow=classic;html=1;curved=0;rounded=0;endSize=8;startSize=8;exitX=1;exitY=0.5;exitDx=0;exitDy=0;" edge="1" parent="1" source="ALYkaGebAR-C7LoZJRpd-17">
          <mxGeometry width="50" height="50" relative="1" as="geometry">
            <mxPoint x="360" y="480" as="sourcePoint" />
            <mxPoint x="110" y="420" as="targetPoint" />
            <Array as="points">
              <mxPoint x="360" y="450" />
            </Array>
          </mxGeometry>
        </mxCell>
        <mxCell id="ALYkaGebAR-C7LoZJRpd-22" value="orderTotal()" style="rounded=0;whiteSpace=wrap;html=1;" vertex="1" parent="1">
          <mxGeometry x="50" y="560" width="120" height="60" as="geometry" />
        </mxCell>
        <mxCell id="ALYkaGebAR-C7LoZJRpd-23" value="" style="rounded=0;whiteSpace=wrap;html=1;" vertex="1" parent="1">
          <mxGeometry x="50" y="550" width="120" height="10" as="geometry" />
        </mxCell>
        <mxCell id="ALYkaGebAR-C7LoZJRpd-26" value="stop" style="strokeWidth=2;html=1;shape=mxgraph.flowchart.terminator;whiteSpace=wrap;" vertex="1" parent="1">
          <mxGeometry x="60" y="660" width="100" height="60" as="geometry" />
        </mxCell>
        <mxCell id="ALYkaGebAR-C7LoZJRpd-27" style="edgeStyle=orthogonalEdgeStyle;rounded=0;orthogonalLoop=1;jettySize=auto;html=1;entryX=0.5;entryY=0;entryDx=0;entryDy=0;entryPerimeter=0;" edge="1" parent="1" source="ALYkaGebAR-C7LoZJRpd-22" target="ALYkaGebAR-C7LoZJRpd-26">
          <mxGeometry relative="1" as="geometry" />
        </mxCell>
        <mxCell id="ALYkaGebAR-C7LoZJRpd-30" style="edgeStyle=orthogonalEdgeStyle;rounded=0;orthogonalLoop=1;jettySize=auto;html=1;entryX=0.5;entryY=0;entryDx=0;entryDy=0;" edge="1" parent="1" source="ALYkaGebAR-C7LoZJRpd-28" target="ALYkaGebAR-C7LoZJRpd-29">
          <mxGeometry relative="1" as="geometry" />
        </mxCell>
        <mxCell id="ALYkaGebAR-C7LoZJRpd-28" value="orderTotal()" style="strokeWidth=2;html=1;shape=mxgraph.flowchart.terminator;whiteSpace=wrap;" vertex="1" parent="1">
          <mxGeometry x="440" y="340" width="100" height="60" as="geometry" />
        </mxCell>
        <mxCell id="ALYkaGebAR-C7LoZJRpd-29" value="output &quot;Your total price&amp;nbsp;&lt;div&gt;today is&quot; + (basePrice + VALID_PRICES[i]) + &quot;.&quot;&lt;/div&gt;" style="shape=parallelogram;perimeter=parallelogramPerimeter;whiteSpace=wrap;html=1;fixedSize=1;" vertex="1" parent="1">
          <mxGeometry x="400" y="430" width="180" height="60" as="geometry" />
        </mxCell>
        <mxCell id="ALYkaGebAR-C7LoZJRpd-31" value="return" style="strokeWidth=2;html=1;shape=mxgraph.flowchart.terminator;whiteSpace=wrap;" vertex="1" parent="1">
          <mxGeometry x="440" y="530" width="100" height="60" as="geometry" />
        </mxCell>
        <mxCell id="ALYkaGebAR-C7LoZJRpd-32" style="edgeStyle=orthogonalEdgeStyle;rounded=0;orthogonalLoop=1;jettySize=auto;html=1;entryX=0.5;entryY=0;entryDx=0;entryDy=0;entryPerimeter=0;" edge="1" parent="1" source="ALYkaGebAR-C7LoZJRpd-29" target="ALYkaGebAR-C7LoZJRpd-31">
          <mxGeometry relative="1" as="geometry" />
        </mxCell>
        <mxCell id="ALYkaGebAR-C7LoZJRpd-36" style="edgeStyle=orthogonalEdgeStyle;rounded=0;orthogonalLoop=1;jettySize=auto;html=1;entryX=0.5;entryY=0;entryDx=0;entryDy=0;" edge="1" parent="1" source="ALYkaGebAR-C7LoZJRpd-33" target="ALYkaGebAR-C7LoZJRpd-34">
          <mxGeometry relative="1" as="geometry" />
        </mxCell>
        <mxCell id="ALYkaGebAR-C7LoZJRpd-33" value="findAddIn()" style="strokeWidth=2;html=1;shape=mxgraph.flowchart.terminator;whiteSpace=wrap;" vertex="1" parent="1">
          <mxGeometry x="290" y="560" width="100" height="60" as="geometry" />
        </mxCell>
        <mxCell id="ALYkaGebAR-C7LoZJRpd-37" style="edgeStyle=orthogonalEdgeStyle;rounded=0;orthogonalLoop=1;jettySize=auto;html=1;entryX=0.5;entryY=0;entryDx=0;entryDy=0;" edge="1" parent="1" source="ALYkaGebAR-C7LoZJRpd-34" target="ALYkaGebAR-C7LoZJRpd-35">
          <mxGeometry relative="1" as="geometry" />
        </mxCell>
        <mxCell id="ALYkaGebAR-C7LoZJRpd-34" value="foundIt = &quot;N&quot;" style="rounded=0;whiteSpace=wrap;html=1;" vertex="1" parent="1">
          <mxGeometry x="295" y="650" width="90" height="30" as="geometry" />
        </mxCell>
        <mxCell id="ALYkaGebAR-C7LoZJRpd-39" style="edgeStyle=orthogonalEdgeStyle;rounded=0;orthogonalLoop=1;jettySize=auto;html=1;entryX=0.5;entryY=0;entryDx=0;entryDy=0;" edge="1" parent="1" source="ALYkaGebAR-C7LoZJRpd-35" target="ALYkaGebAR-C7LoZJRpd-38">
          <mxGeometry relative="1" as="geometry" />
        </mxCell>
        <mxCell id="ALYkaGebAR-C7LoZJRpd-35" value="subscript = 0" style="rounded=0;whiteSpace=wrap;html=1;" vertex="1" parent="1">
          <mxGeometry x="295" y="710" width="90" height="30" as="geometry" />
        </mxCell>
        <mxCell id="ALYkaGebAR-C7LoZJRpd-41" style="edgeStyle=orthogonalEdgeStyle;rounded=0;orthogonalLoop=1;jettySize=auto;html=1;entryX=0.5;entryY=0;entryDx=0;entryDy=0;" edge="1" parent="1" source="ALYkaGebAR-C7LoZJRpd-38" target="ALYkaGebAR-C7LoZJRpd-40">
          <mxGeometry relative="1" as="geometry" />
        </mxCell>
        <mxCell id="ALYkaGebAR-C7LoZJRpd-38" value="subscript&lt;div&gt;&amp;lt; SIZE?&lt;/div&gt;" style="rhombus;whiteSpace=wrap;html=1;" vertex="1" parent="1">
          <mxGeometry x="300" y="780" width="80" height="80" as="geometry" />
        </mxCell>
        <mxCell id="ALYkaGebAR-C7LoZJRpd-43" style="edgeStyle=orthogonalEdgeStyle;rounded=0;orthogonalLoop=1;jettySize=auto;html=1;entryX=1;entryY=0.5;entryDx=0;entryDy=0;" edge="1" parent="1" source="ALYkaGebAR-C7LoZJRpd-40" target="ALYkaGebAR-C7LoZJRpd-42">
          <mxGeometry relative="1" as="geometry" />
        </mxCell>
        <mxCell id="ALYkaGebAR-C7LoZJRpd-46" style="edgeStyle=orthogonalEdgeStyle;rounded=0;orthogonalLoop=1;jettySize=auto;html=1;entryX=0;entryY=0.5;entryDx=0;entryDy=0;" edge="1" parent="1" source="ALYkaGebAR-C7LoZJRpd-40" target="ALYkaGebAR-C7LoZJRpd-45">
          <mxGeometry relative="1" as="geometry" />
        </mxCell>
        <mxCell id="ALYkaGebAR-C7LoZJRpd-40" value="foundIt&lt;div&gt;= &quot;Y&quot;&lt;/div&gt;" style="rhombus;whiteSpace=wrap;html=1;" vertex="1" parent="1">
          <mxGeometry x="300" y="890" width="80" height="80" as="geometry" />
        </mxCell>
        <mxCell id="ALYkaGebAR-C7LoZJRpd-42" value="output MSG_NO" style="shape=parallelogram;perimeter=parallelogramPerimeter;whiteSpace=wrap;html=1;fixedSize=1;" vertex="1" parent="1">
          <mxGeometry x="150" y="910" width="120" height="40" as="geometry" />
        </mxCell>
        <mxCell id="ALYkaGebAR-C7LoZJRpd-45" value="output MSG_YES" style="shape=parallelogram;perimeter=parallelogramPerimeter;whiteSpace=wrap;html=1;fixedSize=1;" vertex="1" parent="1">
          <mxGeometry x="410" y="910" width="120" height="40" as="geometry" />
        </mxCell>
        <mxCell id="ALYkaGebAR-C7LoZJRpd-51" style="edgeStyle=orthogonalEdgeStyle;rounded=0;orthogonalLoop=1;jettySize=auto;html=1;entryX=0.5;entryY=0;entryDx=0;entryDy=0;" edge="1" parent="1" source="ALYkaGebAR-C7LoZJRpd-47" target="ALYkaGebAR-C7LoZJRpd-48">
          <mxGeometry relative="1" as="geometry" />
        </mxCell>
        <mxCell id="ALYkaGebAR-C7LoZJRpd-47" value="output &quot;Enter next add-in&lt;div&gt;&amp;nbsp;or &quot;, QUIT, &quot; to finish.&quot;&lt;/div&gt;" style="shape=parallelogram;perimeter=parallelogramPerimeter;whiteSpace=wrap;html=1;fixedSize=1;" vertex="1" parent="1">
          <mxGeometry x="247.5" y="1010" width="185" height="60" as="geometry" />
        </mxCell>
        <mxCell id="ALYkaGebAR-C7LoZJRpd-48" value="input addIn" style="shape=parallelogram;perimeter=parallelogramPerimeter;whiteSpace=wrap;html=1;fixedSize=1;" vertex="1" parent="1">
          <mxGeometry x="280" y="1110" width="120" height="40" as="geometry" />
        </mxCell>
        <mxCell id="ALYkaGebAR-C7LoZJRpd-49" value="" style="edgeStyle=elbowEdgeStyle;elbow=vertical;endArrow=classic;html=1;curved=0;rounded=0;endSize=8;startSize=8;exitX=0.5;exitY=1;exitDx=0;exitDy=0;entryX=0.5;entryY=0;entryDx=0;entryDy=0;" edge="1" parent="1" source="ALYkaGebAR-C7LoZJRpd-42" target="ALYkaGebAR-C7LoZJRpd-47">
          <mxGeometry width="50" height="50" relative="1" as="geometry">
            <mxPoint x="120" y="1010" as="sourcePoint" />
            <mxPoint x="170" y="960" as="targetPoint" />
          </mxGeometry>
        </mxCell>
        <mxCell id="ALYkaGebAR-C7LoZJRpd-50" value="" style="edgeStyle=elbowEdgeStyle;elbow=vertical;endArrow=classic;html=1;curved=0;rounded=0;endSize=8;startSize=8;exitX=0.5;exitY=1;exitDx=0;exitDy=0;entryX=0.5;entryY=0;entryDx=0;entryDy=0;" edge="1" parent="1" source="ALYkaGebAR-C7LoZJRpd-45" target="ALYkaGebAR-C7LoZJRpd-47">
          <mxGeometry width="50" height="50" relative="1" as="geometry">
            <mxPoint x="570" y="1000" as="sourcePoint" />
            <mxPoint x="620" y="950" as="targetPoint" />
          </mxGeometry>
        </mxCell>
        <mxCell id="ALYkaGebAR-C7LoZJRpd-52" value="return" style="strokeWidth=2;html=1;shape=mxgraph.flowchart.terminator;whiteSpace=wrap;" vertex="1" parent="1">
          <mxGeometry x="290" y="1190" width="100" height="60" as="geometry" />
        </mxCell>
        <mxCell id="ALYkaGebAR-C7LoZJRpd-53" style="edgeStyle=orthogonalEdgeStyle;rounded=0;orthogonalLoop=1;jettySize=auto;html=1;entryX=0.5;entryY=0;entryDx=0;entryDy=0;entryPerimeter=0;" edge="1" parent="1" source="ALYkaGebAR-C7LoZJRpd-48" target="ALYkaGebAR-C7LoZJRpd-52">
          <mxGeometry relative="1" as="geometry" />
        </mxCell>
        <mxCell id="ALYkaGebAR-C7LoZJRpd-54" value="NO" style="text;html=1;align=center;verticalAlign=middle;resizable=0;points=[];autosize=1;strokeColor=none;fillColor=none;fontStyle=1" vertex="1" parent="1">
          <mxGeometry x="270" y="900" width="40" height="30" as="geometry" />
        </mxCell>
        <mxCell id="ALYkaGebAR-C7LoZJRpd-55" value="&lt;b&gt;YES&lt;/b&gt;" style="text;html=1;align=center;verticalAlign=middle;resizable=0;points=[];autosize=1;strokeColor=none;fillColor=none;" vertex="1" parent="1">
          <mxGeometry x="370" y="900" width="50" height="30" as="geometry" />
        </mxCell>
        <mxCell id="ALYkaGebAR-C7LoZJRpd-57" value="NO" style="text;html=1;align=center;verticalAlign=middle;resizable=0;points=[];autosize=1;strokeColor=none;fillColor=none;fontStyle=1" vertex="1" parent="1">
          <mxGeometry x="340" y="850" width="40" height="30" as="geometry" />
        </mxCell>
        <mxCell id="ALYkaGebAR-C7LoZJRpd-58" value="addIn =&lt;div&gt;VALID_ADDINS[subscript]?&lt;/div&gt;" style="rhombus;whiteSpace=wrap;html=1;" vertex="1" parent="1">
          <mxGeometry x="620" y="840" width="180" height="140" as="geometry" />
        </mxCell>
        <mxCell id="ALYkaGebAR-C7LoZJRpd-59" value="" style="edgeStyle=segmentEdgeStyle;endArrow=classic;html=1;curved=0;rounded=0;endSize=8;startSize=8;exitX=1;exitY=0.5;exitDx=0;exitDy=0;entryX=0.5;entryY=0;entryDx=0;entryDy=0;" edge="1" parent="1" source="ALYkaGebAR-C7LoZJRpd-38" target="ALYkaGebAR-C7LoZJRpd-58">
          <mxGeometry width="50" height="50" relative="1" as="geometry">
            <mxPoint x="500" y="830" as="sourcePoint" />
            <mxPoint x="550" y="780" as="targetPoint" />
          </mxGeometry>
        </mxCell>
        <mxCell id="ALYkaGebAR-C7LoZJRpd-63" style="edgeStyle=orthogonalEdgeStyle;rounded=0;orthogonalLoop=1;jettySize=auto;html=1;entryX=0.5;entryY=0;entryDx=0;entryDy=0;" edge="1" parent="1" source="ALYkaGebAR-C7LoZJRpd-60" target="ALYkaGebAR-C7LoZJRpd-61">
          <mxGeometry relative="1" as="geometry" />
        </mxCell>
        <mxCell id="ALYkaGebAR-C7LoZJRpd-60" value="foundIt = &quot;Y&quot;" style="rounded=0;whiteSpace=wrap;html=1;" vertex="1" parent="1">
          <mxGeometry x="800" y="960" width="90" height="30" as="geometry" />
        </mxCell>
        <mxCell id="ALYkaGebAR-C7LoZJRpd-61" value="price =&amp;nbsp;&lt;div&gt;VALID_PRICES[subscript}&lt;/div&gt;" style="rounded=0;whiteSpace=wrap;html=1;" vertex="1" parent="1">
          <mxGeometry x="762.5" y="1030" width="165" height="60" as="geometry" />
        </mxCell>
        <mxCell id="ALYkaGebAR-C7LoZJRpd-62" value="" style="edgeStyle=segmentEdgeStyle;endArrow=classic;html=1;curved=0;rounded=0;endSize=8;startSize=8;exitX=1;exitY=0.5;exitDx=0;exitDy=0;entryX=0.5;entryY=0;entryDx=0;entryDy=0;" edge="1" parent="1" source="ALYkaGebAR-C7LoZJRpd-58" target="ALYkaGebAR-C7LoZJRpd-60">
          <mxGeometry width="50" height="50" relative="1" as="geometry">
            <mxPoint x="920" y="870" as="sourcePoint" />
            <mxPoint x="970" y="820" as="targetPoint" />
          </mxGeometry>
        </mxCell>
        <mxCell id="ALYkaGebAR-C7LoZJRpd-64" value="subscript =&amp;nbsp;&lt;div&gt;subscript + 1&lt;/div&gt;" style="rounded=0;whiteSpace=wrap;html=1;" vertex="1" parent="1">
          <mxGeometry x="650" y="1180" width="120" height="40" as="geometry" />
        </mxCell>
        <mxCell id="ALYkaGebAR-C7LoZJRpd-65" value="" style="edgeStyle=elbowEdgeStyle;elbow=vertical;endArrow=classic;html=1;curved=0;rounded=0;endSize=8;startSize=8;exitX=0;exitY=0.5;exitDx=0;exitDy=0;entryX=0.5;entryY=0;entryDx=0;entryDy=0;" edge="1" parent="1" source="ALYkaGebAR-C7LoZJRpd-58" target="ALYkaGebAR-C7LoZJRpd-64">
          <mxGeometry width="50" height="50" relative="1" as="geometry">
            <mxPoint x="580" y="1080" as="sourcePoint" />
            <mxPoint x="630" y="1030" as="targetPoint" />
            <Array as="points">
              <mxPoint x="670" y="1120" />
            </Array>
          </mxGeometry>
        </mxCell>
        <mxCell id="ALYkaGebAR-C7LoZJRpd-66" value="" style="edgeStyle=elbowEdgeStyle;elbow=vertical;endArrow=classic;html=1;curved=0;rounded=0;endSize=8;startSize=8;exitX=0.5;exitY=1;exitDx=0;exitDy=0;entryX=0.5;entryY=0;entryDx=0;entryDy=0;" edge="1" parent="1" source="ALYkaGebAR-C7LoZJRpd-61" target="ALYkaGebAR-C7LoZJRpd-64">
          <mxGeometry width="50" height="50" relative="1" as="geometry">
            <mxPoint x="820" y="1230" as="sourcePoint" />
            <mxPoint x="870" y="1180" as="targetPoint" />
            <Array as="points">
              <mxPoint x="780" y="1120" />
            </Array>
          </mxGeometry>
        </mxCell>
        <mxCell id="ALYkaGebAR-C7LoZJRpd-67" value="&lt;b&gt;YES&lt;/b&gt;" style="text;html=1;align=center;verticalAlign=middle;resizable=0;points=[];autosize=1;strokeColor=none;fillColor=none;" vertex="1" parent="1">
          <mxGeometry x="460" y="790" width="50" height="30" as="geometry" />
        </mxCell>
        <mxCell id="ALYkaGebAR-C7LoZJRpd-68" value="&lt;b&gt;YES&lt;/b&gt;" style="text;html=1;align=center;verticalAlign=middle;resizable=0;points=[];autosize=1;strokeColor=none;fillColor=none;" vertex="1" parent="1">
          <mxGeometry x="790" y="870" width="50" height="30" as="geometry" />
        </mxCell>
        <mxCell id="ALYkaGebAR-C7LoZJRpd-69" value="NO" style="text;html=1;align=center;verticalAlign=middle;resizable=0;points=[];autosize=1;strokeColor=none;fillColor=none;fontStyle=1" vertex="1" parent="1">
          <mxGeometry x="580" y="920" width="40" height="30" as="geometry" />
        </mxCell>
        <mxCell id="ALYkaGebAR-C7LoZJRpd-70" value="" style="edgeStyle=elbowEdgeStyle;elbow=horizontal;endArrow=classic;html=1;curved=0;rounded=0;endSize=8;startSize=8;exitX=1;exitY=0.5;exitDx=0;exitDy=0;" edge="1" parent="1" source="ALYkaGebAR-C7LoZJRpd-64">
          <mxGeometry width="50" height="50" relative="1" as="geometry">
            <mxPoint x="990" y="1200" as="sourcePoint" />
            <mxPoint x="340" y="760" as="targetPoint" />
            <Array as="points">
              <mxPoint x="940" y="1170" />
            </Array>
          </mxGeometry>
        </mxCell>
      </root>
    </mxGraphModel>
  </diagram>
</mxfile>
